<mxfile host="65bd71144e">
    <diagram id="GvcHVYN7-BzrKaZqHZX4" name="Page-1">
        <mxGraphModel dx="564" dy="187" grid="1" gridSize="10" guides="1" tooltips="1" connect="1" arrows="1" fold="1" page="1" pageScale="1" pageWidth="850" pageHeight="1100" math="0" shadow="0">
            <root>
                <mxCell id="0"/>
                <mxCell id="1" parent="0"/>
                <mxCell id="2" value="" style="ellipse;whiteSpace=wrap;html=1;aspect=fixed;rounded=0;" parent="1" vertex="1">
                    <mxGeometry x="190" y="110" width="170" height="170" as="geometry"/>
                </mxCell>
                <mxCell id="3" value="" style="ellipse;whiteSpace=wrap;html=1;aspect=fixed;rounded=0;" parent="1" vertex="1">
                    <mxGeometry x="222.5" y="142.5" width="105" height="105" as="geometry"/>
                </mxCell>
                <mxCell id="10" value="" style="shape=stencil(fZbdchoxDIWfZm81liz555qk78FMSNkpgQwhbfP28c4OLbbg3BnvflhHOtJ6ipuP/fZ9N0n4uJxPv3Z/5pfLfopPk8h83O/O86Wtpvg8xc3r6bz7eT59Hl/W3+/b5c1l9Xb6vfzD35XjECiEBZPw5bZ+rMhhPt4g1Ui0I2omLgAIVFIPKNX4GCiZovWAXHfuA0aZe6CdiQAh7jWUQgGElMs14n+AkSUAuJDambECQMj6QrQzS34MpEpSe8Bg4VIi7TVkJgaiUyTLHZAyJQZAGEUnJdXHgBWSAWASINoShT4ky5RBpS2OhTNsPnPWaDtFABAo9vZedkBI6kRrpgKsoU60GikISXW0hgosnDLlAQjXNNwFouuH2KwBhkB05ot2TcN9wBUu4gaKPJ4gFVZanAbJpKCnJY1ZEtxx4uogAistbghIgJUW13FcKIK0shPNiQRo4DyGxEoBVJqdW7kVDmhg858gOFvZzaVKDBqO/WiFTmJ2Q4YqeL9S6ieGkoEE5fFz2OSA9Lh0CjSps1xrC+AHN+2aoYAb3G1hvCu0xf+7xut8OKxXldvn492kba33mvj8DQ==);fillColor=none;rounded=0;" parent="1" vertex="1">
                    <mxGeometry x="234.66668701171875" y="123.33332443237305" width="23.333343505859375" height="23.666667938232422" as="geometry"/>
                </mxCell>
                <mxCell id="11" value="" style="shape=stencil(fZPRbsMgDEW/hlcL2wTMc9f9R6WmC1qWVGm6rX9fIrStJKvfHMcHfG2u4d2lO5xbQ/YyT+N7+5WOc2f4xRCloWunNOfI8N7w7jRO7ds0Xodj+T4flsol+hg/lxO+C2fB2gUieysJtL+p1wL0aXgAHGCogCjg4/N69NDUN0gEUS7gTUuhgYgK4IGaCvARkBQJuSVfAY2AKEATAGMFOAHrngN+A3D4afJfIEv0XAEUwCmA4FpDXiUqY5WNaHRAiui8Jl9rQAukbDrSWnQAUYYUHbDUawDWzt/smYGCUi+A9UwtRFFeqt28vLUVcvBnpFPq++LDx/9r4+VUMS3v7w==);fillColor=none;rounded=0;" parent="1" vertex="1">
                    <mxGeometry x="308.66668701171875" y="136.6666603088379" width="26.66668701171875" height="16.999996185302734" as="geometry"/>
                </mxCell>
                <mxCell id="12" value="" style="shape=stencil(fZXdchsxCIWfZm/PSCAJdJ2f98hMnHqnjp1xnLR9+7KzcWsUmzst4hN7EIKJ7963T2+bidL76Xj4ufk1P5+2E99PRPN+uznOJ1tN/DDx3cvhuPlxPHzsn9fvt6fFc1m9Hj6XE36vXEJKC0Tpz2B4XN138/7CvaKoc2+o5bZ7TujN+ecMaQHQUIoHGqgGgEIHQJGDXyJGYwcQoQYRSJG8ZhPdAw1MyN0BnKAaAHXMEhdocAvckbxoVlAguljWvQazNAmAgjwABS0HgBXCAEiY1qLjPdSE0oPSS2g+QiX0QLRti89SreAoQoH4i6tyrq7rgIw33RIoitBRB8B+MshSy+gDUEFBabQCHl5o/B6aaSAHSD4X/HWgQ321CqPybUAIzfcYsYIPItj20JREUaIIglQdoPGLk46cPcDgIIJmZC9aa3jTdh75tGoLO99ynnhAwtKwbfYPSBUSafjWNXoKa8m2xae1x12jE9Sn1Swt0NDLWEtm+SrH60A7N8Z/gI2kCBD0QYOe03BjZH0biRemL8QW/wfqy7zbrfP4cn8cwGZahzc//AU=);fillColor=none;rounded=0;" parent="1" vertex="1">
                    <mxGeometry x="324.66668701171875" y="217.66665649414062" width="24.3333740234375" height="17.00000762939453" as="geometry"/>
                </mxCell>
                <mxCell id="14" value="" style="shape=stencil(lZTJbsJADIafJlfLyyyeM6XvgURoolKCAnR5+04UQTMJsdTbxPHn8TZ/JZtLszvXFePl2nfv9Ve7vzaVvFTM7amp+/aaT5VsK9kcur5+67vbaT9+n3eD53D66D6HCN8jh4A4QIw/o4HwYXodgWN7mgAKmgogCSS37s8MGgpAPTi/DgiBugKIHoQNIMfTEiDwaR1wAj4WQBAIRg2ewEkBeA9BDSCClCk5vbfhKRAIQpmSY0CjS8EDl13KbWAxAJ0XLWjWEBdFcwSOBuDuGT8AMYuOYXEDmqsRcxOp3NZodkkRUpkSOYhGDbrYVmLw1nPI8WYAmnPQMJ90vOf43H8xN3v1Es5fg4Ajw5/nq8rmlJMDLgWAgIy3kwJQ6W/rS1Ig/If/RK/WgHz4k79DezyO6jn9P5fLbBqlVra/);fillColor=none;rounded=0;" parent="1" vertex="1">
                    <mxGeometry x="190.66668701171875" y="199" width="35.000030517578125" height="7.3333282470703125" as="geometry"/>
                </mxCell>
                <mxCell id="15" value="" style="shape=stencil(lZXdbsMgDIWfhtsjsIOB6657j0pNl2hZU6Xpft5+RLnYGhQk3znkfMZGB2z4cO9Ot9aQvc/T+N5+9ee5M/xiiPpr1079nCPDR8OHyzi1b9P4uJ7X79tpUS7Rx/i5ZPheOWctrF0wsj/F0uuKDP21jiSPQPtEKIAY4CuAL4G8EveBhhH8ExAE4vYBdqBnQBKSr3QdtzsIw4Z9QLYbeEGstFC07B1Yo28EIWn0BBGFniOSJj9nU2jq53yerNFb+IpNCz1FUMURpV7gKoYo9U3VoqWeYCt3oNRbOE3+7FjW1O8EXnM+roGo6iHERqN3sJp6ElzlOhbyANZU43VmY4imGIeosf72gc7B3wN/6YdhnQ///28HQl5ahwkffwE=);fillColor=none;rounded=0;" parent="1" vertex="1">
                    <mxGeometry x="273.3333740234375" y="244.6666717529297" width="1.33331298828125" height="36.333343505859375" as="geometry"/>
                </mxCell>
                <mxCell id="16" value="" style="shape=stencil(lZRNjsMgDIVPw9YidsBk3WnvUanpBE0mqdL07/YDYqRWQJDYOeZ94PciWdDuOhwvvUB5XZf5p3/Y0zoI+hKIdhr6xa6uErQXtDvPS/+9zLfpFL4vR6/01e989zc8AydBSg+hfEWNQ5CPdirJFWiukDcIXKP3HV2jJ2hrxscOuKvQk4amZv4WQaltvYtDRQCDKTzg8o5/AEFTcEAcv6AYOrMNqMSDRkDaBnTiQWtoCyNx4oElcLsNmMTD+4p8rDIxwQYYqwiDxZxyBBeDyhBdU0wqR6hiVBnio/WPuOK9Ds52HMM2+TyP14drhdVD+z8=);fillColor=none;rounded=0;" parent="1" vertex="1">
                    <mxGeometry x="338.00006103515625" y="169.66665649414062" width="0.6666259765625" height="15.666679382324219" as="geometry"/>
                </mxCell>
                <mxCell id="18" value="" style="shape=stencil(lVbZbsIwEPyavI5sr4/1M6X/gUQoUSkgoNff1yhKYZ2yad6MM2PvMTu4ocV5uzq2jTPny+nw2n5268u2oafGuW6/bU/dpawaWja02BxO7cvp8L5f97+Pqyvyuno7fFxP+Op5BsZcSc589xu3necev+v2d3iLZAXeBtjwGB+Hr794A9LON3BRECLYK3gHywIf4JV4bIQhmTC8U/AZnATeINrHeEcwXOG1epZwo59zfkKIM+J3DJYN8MPGn3gysLI+DM8qPsn6lI4kmkUoKek3VBFNpZzhsyQkuKTWyElRU1GVdkNEdpJQdrQbQj1mfiKHkYx8AitVKrIJModAIKUPpepUERgpKwSPJJUaPZw2mhahImQkZRZ4qOGAT1Pe4mUGrM+Or3XBulcQnGwa6/GP8FlvwSieHEFxRr6ZB/P7p5fmDJrVYmsm7Gsku0nGyMCyrjsKoyz0YfOEUNVV11Gw9ThPNC6OC6sbRkzI0oWzQVakmkZ/CxPaY4dYiVs3bi5+IpNm3WFKTWycRUjwfg7hTjoPGWVxe8psut2ufwndf6+fPmWrfzbR8gc=);fillColor=none;rounded=0;" parent="1" vertex="1">
                    <mxGeometry x="304.00006103515625" y="247.5833396911621" width="12.999969482421875" height="13.749996185302734" as="geometry"/>
                </mxCell>
                <mxCell id="19" value="" style="shape=stencil(lVbZctswDPwavWJ4g3hO0//ITJxaU9fOOE6Pvy80GqomqWzDN4rcpUBgcUz+4e349HqYnHm7XS/fD7/m59tx8l8m5+bz8XCdb7qa/OPkH14u18O36+X9/Lx+vz4tyGX14/JzueH3yjNkzEJy5k+z8XWFn+bzHTyRlwG4dRTSCJ6JR+7XYz9yv4vEscF79zHeW7KhwUsE+EjeV3hLAuzxQtFVeEcZ3B88WVvhQ9nYx6cWrw4A9oRMsZYDU5SP8VHdV+OFMrAn2vZ+VYjxgODINoRALkBCqhVkU9HgZwmZBL25M0mDnJFJpmhgIwRKGURBSpA2goYBeClw+weveQAeHSLFWhfewUD3wlOpW2SSIa6V7ZkSMEmPW4JqiUdyLWzZuk8IxeKNoOIDj1afSEcIQN67BEb1Zc8kSIijJuVS4O68xMCteiwdAbm1rzEa+wze0OeDEiKqGomyjBCSK8r5LEHaPvUfAicycYSQVWphxEuZKXTyRoVMHLkmcFhLEkut3gihlPN9QibXBC6V/rXfzk03XmhtM6DB7TAibqGioWsIEda+/hVRux4QuKSSYYWg+vKIEMg0hARTSAyFOnRsyAE35USuFgcH6Nes2qnlxwwnDRV4qgWuVwhwK2sTrFNIjTSgyyUmUydp1mkI/KHPasEC17i6XBN0/AEmLcqpC42KhfF40g4Ppp1AdfFv+H6ZT6d1dr8/b4d13VoHff/4Fw==);fillColor=none;rounded=0;" parent="1" vertex="1">
                    <mxGeometry x="223.3333740234375" y="236.3333282470703" width="13.916664123535156" height="26.333335876464844" as="geometry"/>
                </mxCell>
                <mxCell id="20" value="" style="shape=stencil(lVbLbgIxDPyavVpxnOeZ0v9AAsqqFBDQ19/XaFuVjWFW3JYwk2Q8EyedzE6bxWHVeXc6H/evq89+ed508tR53+82q2N/1q9O5p3M1vvj6uW4f98th9+HxQV5+Xrbf1xm+Bp4mcm7C8u772HEkRsGngf8tt9d4VOgMsZ74ngfH4V8GeELSb2PD4FSHeFZqHhAcO2GOFKW+wQRSg2hUk73CT5RaCQHYqBB52tq6jPUwGZLwuRAVavBCzkgIRp8JFeA5FaxZGKQCuOBVGJGeDfGq4vIMzN/YKoBeNwaEASm1Dis+Arw7I2AADPExawQiVHojGUTBHl0S2JSqgQBosOjVYom1kqIyAbr84Rv2WjwlEEwst2SJ0EEWyWmCKJaTIOcyHYprXHqTAXdojpzOgtlcNqqicbEcb5BiBRAv6jmFtGGFDIQbTsYUwFO36gSbpHFpHWKYJskU0AE47SewQROnBJaDXrbgbLeIGDjLGEqfDatkSLSYMoa9dCC8FnjYsJlNdFIniJKqwlfKrDNaLwb0Tn8rXmbEFrRxVFCK6RWtNbNgydDza1oPeWCmoC+KPKYoBoQwdxAOkUE4WNnbumroV+Kfvy/LNf9djs8TK//b1+iOjS8YmX+Aw==);fillColor=none;rounded=0;" parent="1" vertex="1">
                    <mxGeometry x="207.25003051757812" y="163" width="10.416671752929688" height="20.666656494140625" as="geometry"/>
                </mxCell>
                <mxCell id="22" value="" style="shape=stencil(lVbLcsIwDPyaXDWW5eeZtv/BDKFkSgkD9PX3dSbFYCtRyi1xdh1ptZLd0Oq8Wx/bRqvz5dS/tV/d5rJr6KnRujvs2lN3SU8NPTe02van9vXUfxw24/txPSCHp/f+c9jhe+ShUqDUQNPqZ1zKCy8jYd8d7ghRg40P4L0DKvdH8GEe7xBiiSdAP4+3BhwVeAPGzOMNgvMF3l0XJvE6gC/jCRDiPB59rQ8iIAqCgnYlnoBISKDOFy1YN49XECt8EPdnftBy/Gz/hQLoa/kzXo4nZ5f9oEUDeTBY4uX9mf6G5AIrwDIBK3fArf6Z4ERFOcFpGF4fIMimRg3KFAS/kIOGWKrkF0IyELAmSGXjfbPwh2TLarCkHKRGSE6qnOq8GBKp2npOtgbZ2hpOlpVirdKCNYwFKqeXlVWyrJ1NFNvTUj3vjKxSitiEmiCGlPvxn39IImJ8JAfH7L2gkmP2tvJQ5YSFSk8Q5DE5QZAPHk7w8kHCVfJy4RwbM0E+GiybrUFO2rLhHRbMx07DKA8By46rKM+lm5kzwYqVTseHLnOI/ir09BDIdc0EudJEdQPd3eL+GOnhduXbdvv9eGO8/15fEdPSeL2k518=);fillColor=none;rounded=0;" parent="1" vertex="1">
                    <mxGeometry x="273.6667060852051" y="120.33332824707031" width="9.000041961669922" height="15.000003814697266" as="geometry"/>
                </mxCell>
            </root>
        </mxGraphModel>
    </diagram>
</mxfile>